<?xml version="1.0" encoding="utf-8"?>
<!-- Generator: Adobe Illustrator 24.3.0, SVG Export Plug-In . SVG Version: 6.00 Build 0)  -->
<svg version="1.1" id="Calque_1" xmlns="http://www.w3.org/2000/svg" xmlns:xlink="http://www.w3.org/1999/xlink" x="0px" y="0px"
	 viewBox="0 0 1110.2 630.7" style="enable-background:new 0 0 1110.2 630.7;" xml:space="preserve">
<style type="text/css">
	.st0{fill:url(#SVGID_1_);}
	.st1{fill:#FFFFFF;}
	.st2{opacity:0.8;}
	.st3{opacity:0.28;fill:#FFFFFF;}
	.st4{opacity:0.57;fill:#FFFFFF;}
	.st5{fill:url(#SVGID_2_);}
	.st6{fill:url(#SVGID_3_);}
	.st7{fill:url(#SVGID_4_);}
	.st8{fill:#D6CBC4;}
	.st9{fill:#BFB5A9;}
	.st10{fill:#F4E9D9;}
</style>
<g id="nuage-bg_1_">
	<linearGradient id="SVGID_1_" gradientUnits="userSpaceOnUse" x1="548.2205" y1="8.11" x2="548.2205" y2="608.6199">
		<stop  offset="0" style="stop-color:#1F1F24"/>
		<stop  offset="0.3468" style="stop-color:#202026"/>
		<stop  offset="0.525" style="stop-color:#22252A"/>
		<stop  offset="0.6648" style="stop-color:#252C32"/>
		<stop  offset="0.7847" style="stop-color:#29363D"/>
		<stop  offset="0.8917" style="stop-color:#2C424B"/>
		<stop  offset="0.9883" style="stop-color:#2D525E"/>
		<stop  offset="1" style="stop-color:#2D5561"/>
	</linearGradient>
	<path class="st0" d="M1088.2,65.9v359.9c-19-43.6-63.7-74.2-115.6-74.2C903.2,351.6,847,405.9,847,473h-29
		c-40.6,0-73.8,32.1-73.8,71.4v28.4c0,13,3.6,25.3,10,35.8H445.4c0,0,11.2-49.3-16.8-85.6c-28.1-36.3-78.1-16.9-78.1-16.9
		c-22.3-136.5-136.3-99.5-180.3-88.3c-9.5-47.2-118.3-93.3-161.9-58.7v-190c5.5,1.3,11.3,1.9,17.2,1.9c34.5,0,63.8-22.5,73.8-53.7
		c9.6,11,23.8,17.9,39.6,17.9c25.4,0,46.6-17.9,51.7-41.8c0.8-3.6,1.2-7.2,1.2-11.1c0-3.1-0.3-6.2-0.8-9.2h1
		c23.5,0,42.7-19.2,42.7-42.6v-0.8c0-7.8-2-15.2-5.5-21.6h530.1c-0.8,2.5-1.2,5.1-1.2,7.7v0.6c0,18.4,21.6,33.5,48,33.5h1.2
		c-0.6,2.3-0.9,4.8-0.9,7.2c0,3,0.4,5.9,1.3,8.7c5.7,18.8,29.6,32.8,58.2,32.8c17.8,0,33.7-5.4,44.6-14.1
		c11.3,24.5,44.3,42.2,83.1,42.2c48.3,0,87.4-27.3,87.4-60.9H1088.2z"/>
	<g>
		<g>
			<path class="st1" d="M69.4,46.9c0,1.5-1.2,2.7-2.7,2.7s-2.7-1.2-2.7-2.7c0-1.5,1.2-2.7,2.7-2.7S69.4,45.4,69.4,46.9z"/>
			<path class="st1" d="M146.1,63.2c0,1.5-1.2,2.7-2.7,2.7c-1.5,0-2.7-1.2-2.7-2.7c0-1.5,1.2-2.7,2.7-2.7
				C144.9,60.6,146.1,61.8,146.1,63.2z"/>
			<path class="st1" d="M15.9,16.8c0,1.5-1.2,2.7-2.7,2.7c-1.5,0-2.7-1.2-2.7-2.7s1.2-2.7,2.7-2.7C14.7,14.1,15.9,15.3,15.9,16.8z"
				/>
			<path class="st1" d="M339.1,55.7c0,1.5-1.2,2.7-2.7,2.7c-1.5,0-2.7-1.2-2.7-2.7c0-1.5,1.2-2.7,2.7-2.7
				C337.9,53.1,339.1,54.3,339.1,55.7z"/>
			<path class="st1" d="M96.5,27c0,0.7-0.6,1.3-1.3,1.3c-0.7,0-1.3-0.6-1.3-1.3s0.6-1.3,1.3-1.3C95.9,25.7,96.5,26.3,96.5,27z"/>
			<path class="st1" d="M151.1,20.2c0,0.7-0.6,1.3-1.3,1.3c-0.7,0-1.3-0.6-1.3-1.3c0-0.7,0.6-1.3,1.3-1.3
				C150.5,18.8,151.1,19.4,151.1,20.2z"/>
			<path class="st1" d="M96,101.3c0,0.7-0.6,1.3-1.3,1.3c-0.7,0-1.3-0.6-1.3-1.3c0-0.7,0.6-1.3,1.3-1.3C95.4,100,96,100.5,96,101.3z
				"/>
			<circle class="st1" cx="121.8" cy="116.9" r="0.7"/>
			<circle class="st1" cx="162.1" cy="92.4" r="0.7"/>
			<circle class="st1" cx="145.4" cy="108.8" r="0.7"/>
			<circle class="st1" cx="136.3" cy="121.5" r="0.7"/>
			<circle class="st1" cx="137.2" cy="100.9" r="0.7"/>
			<circle class="st1" cx="60.3" cy="148.3" r="1.3"/>
			<circle class="st1" cx="272.7" cy="16.3" r="1.3"/>
			<path class="st1" d="M68,243.5c0,1.5-1.2,2.7-2.7,2.7c-1.5,0-2.7-1.2-2.7-2.7c0-1.5,1.2-2.7,2.7-2.7C66.8,240.8,68,242,68,243.5z
				"/>
			<path class="st1" d="M47.9,382.6c0,1.5-1.2,2.7-2.7,2.7c-1.5,0-2.7-1.2-2.7-2.7c0-1.5,1.2-2.7,2.7-2.7
				C46.7,379.9,47.9,381.1,47.9,382.6z"/>
			<path class="st1" d="M259.9,178.5c0,1.5-1.2,2.7-2.7,2.7c-1.5,0-2.7-1.2-2.7-2.7s1.2-2.7,2.7-2.7
				C258.7,175.9,259.9,177.1,259.9,178.5z"/>
			<g class="st2">
				<polygon class="st3" points="256.4,178.3 257.5,146.5 258.1,178.1 257.9,213.5 				"/>
				<polygon class="st3" points="257.5,177.7 289.3,178.7 257.7,179.4 222.3,179.2 				"/>
				<polygon class="st4" points="256.7,177.9 274.5,162.7 257.7,178.7 238.4,196.1 				"/>
				<polygon class="st4" points="257.6,178.1 272.7,195.9 256.8,179.1 239.4,159.8 				"/>
			</g>
			<path class="st1" d="M436.8,106.5c0,1.5-1.2,2.7-2.7,2.7c-1.5,0-2.7-1.2-2.7-2.7s1.2-2.7,2.7-2.7
				C435.6,103.8,436.8,105,436.8,106.5z"/>
			<circle class="st1" cx="205.4" cy="110.8" r="1.3"/>
			<path class="st1" d="M13.1,230.4c0,0.7-0.6,1.3-1.3,1.3c-0.7,0-1.3-0.6-1.3-1.3s0.6-1.3,1.3-1.3C12.5,229,13.1,229.6,13.1,230.4z
				"/>
			<path class="st1" d="M194.3,185.6c0,0.7-0.6,1.3-1.3,1.3c-0.7,0-1.3-0.6-1.3-1.3c0-0.7,0.6-1.3,1.3-1.3
				C193.7,184.3,194.3,184.9,194.3,185.6z"/>
			<path class="st1" d="M234.6,273.9c0,0.7-0.6,1.3-1.3,1.3c-0.7,0-1.3-0.6-1.3-1.3s0.6-1.3,1.3-1.3
				C234,272.5,234.6,273.1,234.6,273.9z"/>
			<path class="st1" d="M139.2,266.7c0,0.7-0.6,1.3-1.3,1.3c-0.7,0-1.3-0.6-1.3-1.3c0-0.7,0.6-1.3,1.3-1.3
				C138.7,265.4,139.2,266,139.2,266.7z"/>
			<path class="st1" d="M19.1,115.2c0,0.7-0.6,1.3-1.3,1.3c-0.7,0-1.3-0.6-1.3-1.3s0.6-1.3,1.3-1.3
				C18.5,113.9,19.1,114.5,19.1,115.2z"/>
			<path class="st1" d="M156.2,312c0,0.7-0.6,1.3-1.3,1.3c-0.7,0-1.3-0.6-1.3-1.3c0-0.7,0.6-1.3,1.3-1.3
				C155.6,310.6,156.2,311.2,156.2,312z"/>
			<circle class="st1" cx="165" cy="282.3" r="0.7"/>
			<circle class="st1" cx="205.4" cy="257.9" r="0.7"/>
			<circle class="st1" cx="281.9" cy="200.8" r="0.7"/>
			<circle class="st1" cx="188.7" cy="274.2" r="0.7"/>
			<circle class="st1" cx="201.2" cy="305.5" r="0.7"/>
			<circle class="st1" cx="249.8" cy="305.4" r="0.7"/>
			<circle class="st1" cx="352.5" cy="269.6" r="0.7"/>
			<circle class="st1" cx="179.5" cy="286.9" r="0.7"/>
			<circle class="st1" cx="252.5" cy="344.8" r="0.7"/>
			<path class="st1" d="M180.6,265.6c0.4,0.1,0.7,0.5,0.6,0.9c-0.1,0.4-0.5,0.7-0.9,0.6c-0.4-0.1-0.7-0.5-0.6-0.9
				C179.8,265.8,180.2,265.6,180.6,265.6z"/>
			<circle class="st1" cx="161.1" cy="373.4" r="0.7"/>
			<circle class="st1" cx="135.5" cy="203.6" r="0.7"/>
			<circle class="st1" cx="182.7" cy="221.2" r="0.7"/>
			<circle class="st1" cx="83.8" cy="217.3" r="0.7"/>
			<circle class="st1" cx="13.4" cy="367.9" r="0.7"/>
			<circle class="st1" cx="68" cy="363.3" r="0.7"/>
			<circle class="st1" cx="103.5" cy="313.8" r="1.3"/>
			<path class="st1" d="M78.7,421.6c0,0.7-0.6,1.3-1.3,1.3c-0.7,0-1.3-0.6-1.3-1.3c0-0.7,0.6-1.3,1.3-1.3
				C78.1,420.3,78.7,420.9,78.7,421.6z"/>
			<path class="st1" d="M398.3,46.9c0,1.5-1.2,2.7-2.7,2.7c-1.5,0-2.7-1.2-2.7-2.7c0-1.5,1.2-2.7,2.7-2.7
				C397.1,44.2,398.3,45.4,398.3,46.9z"/>
			<circle class="st1" cx="539.6" cy="44.9" r="2.7"/>
			<path class="st1" d="M344.7,16.8c0,1.5-1.2,2.7-2.7,2.7c-1.5,0-2.7-1.2-2.7-2.7s1.2-2.7,2.7-2.7
				C343.5,14.1,344.7,15.3,344.7,16.8z"/>
			<path class="st1" d="M667.9,55.7c0,1.5-1.2,2.7-2.7,2.7c-1.5,0-2.7-1.2-2.7-2.7c0-1.5,1.2-2.7,2.7-2.7
				C666.8,53.1,667.9,54.3,667.9,55.7z"/>
			<circle class="st1" cx="424" cy="27" r="1.3"/>
			<path class="st1" d="M479.9,20.2c0,0.7-0.6,1.3-1.3,1.3c-0.7,0-1.3-0.6-1.3-1.3c0-0.7,0.6-1.3,1.3-1.3
				C479.3,18.8,479.9,19.4,479.9,20.2z"/>
			<path class="st1" d="M424.8,101.3c0,0.7-0.6,1.3-1.3,1.3c-0.7,0-1.3-0.6-1.3-1.3c0-0.7,0.6-1.3,1.3-1.3
				C424.2,100,424.8,100.5,424.8,101.3z"/>
			<circle class="st1" cx="384.9" cy="185.3" r="0.7"/>
			<circle class="st1" cx="491" cy="92.4" r="0.7"/>
			<circle class="st1" cx="474.3" cy="108.8" r="0.7"/>
			<circle class="st1" cx="465.1" cy="121.5" r="0.7"/>
			<circle class="st1" cx="276" cy="109.5" r="0.7"/>
			<path class="st1" d="M390.4,148.3c0,0.7-0.6,1.3-1.3,1.3c-0.7,0-1.3-0.6-1.3-1.3c0-0.7,0.6-1.3,1.3-1.3
				C389.8,147,390.4,147.6,390.4,148.3z"/>
			<path class="st1" d="M602.9,16.3c0,0.7-0.6,1.3-1.3,1.3c-0.7,0-1.3-0.6-1.3-1.3c0-0.7,0.6-1.3,1.3-1.3
				C602.3,15,602.9,15.5,602.9,16.3z"/>
			<path class="st1" d="M398.9,321.4c0,1.5-1.2,2.7-2.7,2.7c-1.5,0-2.7-1.2-2.7-2.7c0-1.5,1.2-2.7,2.7-2.7
				C397.7,318.7,398.9,319.9,398.9,321.4z"/>
			<path class="st1" d="M336.1,332.6c0,1.5-1.2,2.7-2.7,2.7c-1.5,0-2.7-1.2-2.7-2.7c0-1.5,1.2-2.7,2.7-2.7
				C334.9,329.9,336.1,331.1,336.1,332.6z"/>
			<path class="st1" d="M239.2,439.9c0,1.5-1.2,2.7-2.7,2.7c-1.5,0-2.7-1.2-2.7-2.7c0-1.5,1.2-2.7,2.7-2.7
				C238,437.2,239.2,438.4,239.2,439.9z"/>
			<path class="st1" d="M588.7,178.5c0,1.5-1.2,2.7-2.7,2.7c-1.5,0-2.7-1.2-2.7-2.7s1.2-2.7,2.7-2.7
				C587.5,175.9,588.7,177.1,588.7,178.5z"/>
			<circle class="st1" cx="762.9" cy="106.5" r="2.7"/>
			<circle class="st1" cx="562.1" cy="101.8" r="1.3"/>
			<path class="st1" d="M341.9,230.4c0,0.7-0.6,1.3-1.3,1.3s-1.3-0.6-1.3-1.3s0.6-1.3,1.3-1.3S341.9,229.6,341.9,230.4z"/>
			<circle class="st1" cx="473.5" cy="159" r="1.3"/>
			<circle class="st1" cx="646.2" cy="197.9" r="1.3"/>
			<path class="st1" d="M468.1,266.7c0,0.7-0.6,1.3-1.3,1.3c-0.7,0-1.3-0.6-1.3-1.3c0-0.7,0.6-1.3,1.3-1.3
				C467.5,265.4,468.1,266,468.1,266.7z"/>
			<path class="st1" d="M348,115.2c0,0.7-0.6,1.3-1.3,1.3c-0.7,0-1.3-0.6-1.3-1.3s0.6-1.3,1.3-1.3C347.4,113.9,348,114.5,348,115.2z
				"/>
			<path class="st1" d="M455.5,304.1c0,0.7-0.6,1.3-1.3,1.3s-1.3-0.6-1.3-1.3s0.6-1.3,1.3-1.3S455.5,303.3,455.5,304.1z"/>
			<circle class="st1" cx="493.9" cy="282.3" r="0.7"/>
			<circle class="st1" cx="534.2" cy="257.9" r="0.7"/>
			<circle class="st1" cx="610.7" cy="200.8" r="0.7"/>
			<circle class="st1" cx="597.4" cy="157.5" r="0.7"/>
			<circle class="st1" cx="530" cy="305.5" r="0.7"/>
			<circle class="st1" cx="683.8" cy="141.7" r="0.7"/>
			<circle class="st1" cx="681.3" cy="269.6" r="0.7"/>
			<circle class="st1" cx="444.3" cy="399.4" r="0.7"/>
			<circle class="st1" cx="534.4" cy="355.3" r="0.7"/>
			<circle class="st1" cx="141.6" cy="45.6" r="0.7"/>
			<circle class="st1" cx="581.4" cy="344.8" r="0.7"/>
			<circle class="st1" cx="603.4" cy="333.3" r="0.7"/>
			<circle class="st1" cx="599.3" cy="319.3" r="0.7"/>
			<path class="st1" d="M509.4,265.6c0.4,0.1,0.7,0.5,0.6,0.9c-0.1,0.4-0.5,0.7-0.9,0.6c-0.4-0.1-0.7-0.5-0.6-0.9
				C508.6,265.8,509,265.6,509.4,265.6z"/>
			<circle class="st1" cx="435.3" cy="409.3" r="0.7"/>
			<circle class="st1" cx="464.4" cy="203.6" r="0.7"/>
			<circle class="st1" cx="511.5" cy="221.2" r="0.7"/>
			<circle class="st1" cx="918.4" cy="148" r="0.7"/>
			<circle class="st1" cx="958.8" cy="123.6" r="0.7"/>
			<circle class="st1" cx="954.6" cy="171.3" r="0.7"/>
			<path class="st1" d="M934,131.4c0.4,0.1,0.7,0.5,0.6,0.9c-0.1,0.4-0.5,0.7-0.9,0.6c-0.4-0.1-0.7-0.5-0.6-0.9
				C933.2,131.5,933.6,131.3,934,131.4z"/>
			<circle class="st1" cx="936.1" cy="86.9" r="0.7"/>
			<circle class="st1" cx="412.7" cy="217.3" r="0.7"/>
			<circle class="st1" cx="947.4" cy="47.4" r="0.7"/>
			<path class="st1" d="M938.5,181.9c-0.3,1.4-1.6,2.4-3.1,2.2c-1.4-0.3-2.4-1.6-2.2-3.1c0.3-1.4,1.6-2.4,3.1-2.2
				C937.8,179.1,938.8,180.4,938.5,181.9z"/>
			<path class="st1" d="M950.8,127.1c0,1.5-1.2,2.7-2.7,2.7c-1.5,0-2.7-1.2-2.7-2.7c0-1.5,1.2-2.7,2.7-2.7
				C949.6,124.5,950.8,125.7,950.8,127.1z"/>
			<path class="st1" d="M1037.3,21.1c0,0.7-0.6,1.3-1.3,1.3c-0.7,0-1.3-0.6-1.3-1.3c0-0.7,0.6-1.3,1.3-1.3
				C1036.7,19.8,1037.3,20.4,1037.3,21.1z"/>
			<circle class="st1" cx="1029.2" cy="128.8" r="1.3"/>
			<path class="st1" d="M996.7,193.7c0,0.7-0.6,1.3-1.3,1.3c-0.7,0-1.3-0.6-1.3-1.3c0-0.7,0.6-1.3,1.3-1.3
				C996.2,192.4,996.7,193,996.7,193.7z"/>
			<circle class="st1" cx="1056.3" cy="144.4" r="0.7"/>
			<path class="st1" d="M1071.9,127.7c0.4,0.1,0.7,0.5,0.6,0.9c-0.1,0.4-0.5,0.7-0.9,0.6c-0.4-0.1-0.7-0.5-0.6-0.9
				C1071.1,127.9,1071.5,127.7,1071.9,127.7z"/>
			<path class="st1" d="M1027.6,65.8c0,0.4-0.3,0.7-0.7,0.7c-0.4,0-0.7-0.3-0.7-0.7c0-0.4,0.3-0.7,0.7-0.7
				C1027.3,65,1027.6,65.4,1027.6,65.8z"/>
			<path class="st1" d="M1074.7,83.3c0,0.4-0.3,0.7-0.7,0.7c-0.4,0-0.7-0.3-0.7-0.7c0-0.4,0.3-0.7,0.7-0.7
				C1074.4,82.6,1074.7,82.9,1074.7,83.3z"/>
			<circle class="st1" cx="975.1" cy="79.4" r="0.7"/>
			<circle class="st1" cx="342.2" cy="367.9" r="0.7"/>
			<circle class="st1" cx="396.9" cy="363.3" r="0.7"/>
			<circle class="st1" cx="309.8" cy="339.4" r="1.3"/>
			<circle class="st1" cx="362.2" cy="436.9" r="1.3"/>
			<circle class="st1" cx="943.5" cy="278.6" r="0.7"/>
			<path class="st1" d="M958.6,328.7c0,1.5-1.2,2.7-2.7,2.7c-1.5,0-2.7-1.2-2.7-2.7s1.2-2.7,2.7-2.7
				C957.5,326.1,958.6,327.3,958.6,328.7z"/>
			<path class="st1" d="M1059.1,275.7c0,0.7-0.6,1.3-1.3,1.3c-0.7,0-1.3-0.6-1.3-1.3c0-0.7,0.6-1.3,1.3-1.3
				C1058.5,274.4,1059.1,275,1059.1,275.7z"/>
			<circle class="st1" cx="1023.9" cy="340.6" r="1.3"/>
			<circle class="st1" cx="933.2" cy="376.9" r="0.7"/>
			<circle class="st1" cx="987.9" cy="372.3" r="0.7"/>
			<path class="st1" d="M954.5,445.9c0,0.7-0.6,1.3-1.3,1.3s-1.3-0.6-1.3-1.3c0-0.7,0.6-1.3,1.3-1.3S954.5,445.2,954.5,445.9z"/>
			<path class="st1" d="M749.3,147.5c0,0.7-0.6,1.3-1.3,1.3c-0.7,0-1.3-0.6-1.3-1.3c0-0.7,0.6-1.3,1.3-1.3
				C748.7,146.2,749.3,146.8,749.3,147.5z"/>
			<circle class="st1" cx="709.3" cy="231.5" r="0.7"/>
			<circle class="st1" cx="815.4" cy="138.7" r="0.7"/>
			<circle class="st1" cx="562.1" cy="50.1" r="0.7"/>
			<circle class="st1" cx="876" cy="38.1" r="0.7"/>
			<circle class="st1" cx="799.4" cy="78.7" r="0.7"/>
			<circle class="st1" cx="789.5" cy="167.7" r="0.7"/>
			<path class="st1" d="M616.4,143.8c-0.4,0.1-0.8-0.2-0.8-0.6c-0.1-0.4,0.2-0.8,0.6-0.8c0.4-0.1,0.8,0.2,0.8,0.6
				C617.1,143.4,616.8,143.8,616.4,143.8z"/>
			<path class="st1" d="M714.9,194.5c0,0.7-0.6,1.3-1.3,1.3c-0.7,0-1.3-0.6-1.3-1.3c0-0.7,0.6-1.3,1.3-1.3
				C714.3,193.2,714.9,193.8,714.9,194.5z"/>
			<circle class="st1" cx="293.4" cy="37.4" r="1.3"/>
			<path class="st1" d="M692.1,365.9c0,1.5-1.2,2.7-2.7,2.7c-1.5,0-2.7-1.2-2.7-2.7c0-1.5,1.2-2.7,2.7-2.7
				C690.9,363.3,692.1,364.5,692.1,365.9z"/>
			<path class="st1" d="M482.1,395.1c0,1.5-1.2,2.7-2.7,2.7c-1.5,0-2.7-1.2-2.7-2.7c0-1.5,1.2-2.7,2.7-2.7
				C481,392.4,482.1,393.6,482.1,395.1z"/>
			<path class="st1" d="M589.2,403.9c0,1.5-1.2,2.7-2.7,2.7c-1.5,0-2.7-1.2-2.7-2.7c0-1.5,1.2-2.7,2.7-2.7
				C588,401.3,589.2,402.4,589.2,403.9z"/>
			<path class="st1" d="M480.3,444.7c0,1.5-1.2,2.7-2.7,2.7c-1.5,0-2.7-1.2-2.7-2.7c0-1.5,1.2-2.7,2.7-2.7
				C479.1,442,480.3,443.2,480.3,444.7z"/>
			<path class="st1" d="M564,458.5c0,1.5-1.2,2.7-2.7,2.7s-2.7-1.2-2.7-2.7c0-1.5,1.2-2.7,2.7-2.7S564,457,564,458.5z"/>
			<path class="st1" d="M434,350.7c0,1.5-1.2,2.7-2.7,2.7c-1.5,0-2.7-1.2-2.7-2.7c0-1.5,1.2-2.7,2.7-2.7
				C432.8,348.1,434,349.3,434,350.7z"/>
			<path class="st1" d="M913.1,224.7c0,1.5-1.2,2.7-2.7,2.7c-1.5,0-2.7-1.2-2.7-2.7s1.2-2.7,2.7-2.7
				C911.9,222.1,913.1,223.3,913.1,224.7z"/>
			<path class="st1" d="M1090,152.7c0,1.5-1.2,2.7-2.7,2.7c-1.5,0-2.7-1.2-2.7-2.7c0-1.5,1.2-2.7,2.7-2.7
				C1088.8,150,1090,151.2,1090,152.7z"/>
			<path class="st1" d="M887.9,148c0,0.7-0.6,1.3-1.3,1.3s-1.3-0.6-1.3-1.3c0-0.7,0.6-1.3,1.3-1.3S887.9,147.3,887.9,148z"/>
			<path class="st1" d="M666.4,276.6c0,0.7-0.6,1.3-1.3,1.3c-0.7,0-1.3-0.6-1.3-1.3s0.6-1.3,1.3-1.3
				C665.8,275.2,666.4,275.8,666.4,276.6z"/>
			<circle class="st1" cx="864" cy="71.7" r="1.3"/>
			<circle class="st1" cx="847.5" cy="25.5" r="1.3"/>
			<path class="st1" d="M972,244.1c0,0.7-0.6,1.3-1.3,1.3c-0.7,0-1.3-0.6-1.3-1.3s0.6-1.3,1.3-1.3C971.4,242.8,972,243.4,972,244.1z
				"/>
			<circle class="st1" cx="823.3" cy="208.6" r="1.3"/>
			<circle class="st1" cx="671" cy="161.4" r="1.3"/>
			<path class="st1" d="M758.7,377.8c0,0.7-0.6,1.3-1.3,1.3s-1.3-0.6-1.3-1.3c0-0.7,0.6-1.3,1.3-1.3S758.7,377.1,758.7,377.8z"/>
			<circle class="st1" cx="818.3" cy="328.5" r="0.7"/>
			<circle class="st1" cx="858.7" cy="304.1" r="0.7"/>
			<circle class="st1" cx="935.1" cy="247" r="0.7"/>
			<circle class="st1" cx="906.7" cy="210.4" r="0.7"/>
			<path class="st1" d="M780.1,290.3c0,1.5-1.2,2.7-2.7,2.7s-2.7-1.2-2.7-2.7c0-1.5,1.2-2.7,2.7-2.7S780.1,288.8,780.1,290.3z"/>
			<path class="st1" d="M672.9,535.7c0,1.5-1.2,2.7-2.7,2.7c-1.5,0-2.7-1.2-2.7-2.7s1.2-2.7,2.7-2.7
				C671.7,533.1,672.9,534.3,672.9,535.7z"/>
			<circle class="st1" cx="698.4" cy="565.2" r="1.3"/>
			<circle class="st1" cx="837.1" cy="522.7" r="1.3"/>
			<circle class="st1" cx="743.6" cy="551.7" r="0.7"/>
			<circle class="st1" cx="782.8" cy="493.6" r="0.7"/>
			<circle class="st1" cx="822.7" cy="491" r="0.7"/>
			<circle class="st1" cx="650" cy="503" r="0.7"/>
			<circle class="st1" cx="1008.2" cy="187.9" r="0.7"/>
			<circle class="st1" cx="1005.8" cy="315.8" r="0.7"/>
			<circle class="st1" cx="787.4" cy="550.3" r="0.7"/>
			<circle class="st1" cx="874.5" cy="497.7" r="0.7"/>
			<path class="st1" d="M833.8,311.8c0.4,0.1,0.7,0.5,0.6,0.9c-0.1,0.4-0.5,0.7-0.9,0.6c-0.4-0.1-0.7-0.5-0.6-0.9
				C833,312,833.4,311.8,833.8,311.8z"/>
			<path class="st1" d="M819,430.9c0.4,0.1,0.7,0.5,0.6,0.9c-0.1,0.4-0.5,0.7-0.9,0.6c-0.4-0.1-0.7-0.5-0.6-0.9
				C818.2,431.1,818.6,430.8,819,430.9z"/>
			<circle class="st1" cx="750.6" cy="492.5" r="0.7"/>
			<circle class="st1" cx="788.8" cy="249.9" r="0.7"/>
			<path class="st1" d="M836.7,267.4c0,0.4-0.3,0.7-0.7,0.7c-0.4,0-0.7-0.3-0.7-0.7c0-0.4,0.3-0.7,0.7-0.7
				C836.3,266.7,836.7,267,836.7,267.4z"/>
			<circle class="st1" cx="737.1" cy="263.5" r="0.7"/>
			<circle class="st1" cx="861.4" cy="388.2" r="0.7"/>
			<path class="st1" d="M910.8,534.4c0,0.7-0.6,1.3-1.3,1.3c-0.7,0-1.3-0.6-1.3-1.3c0-0.7,0.6-1.3,1.3-1.3
				C910.2,533.1,910.8,533.7,910.8,534.4z"/>
			<circle class="st1" cx="970.4" cy="485.2" r="0.7"/>
			<circle class="st1" cx="1010.8" cy="460.7" r="0.7"/>
			<circle class="st1" cx="1061.5" cy="378.3" r="0.7"/>
			<path class="st1" d="M986,468.5c0.4,0.1,0.7,0.5,0.6,0.9c-0.1,0.4-0.5,0.7-0.9,0.6s-0.7-0.5-0.6-0.9
				C985.2,468.7,985.6,468.4,986,468.5z"/>
			<circle class="st1" cx="783.9" cy="68.7" r="0.7"/>
			<circle class="st1" cx="748.6" cy="128" r="0.7"/>
			<circle class="st1" cx="835.7" cy="75.4" r="0.7"/>
			<path class="st1" d="M817.1,44c-0.3,0.2-0.8,0.1-1-0.2c-0.2-0.3-0.1-0.8,0.2-1c0.3-0.2,0.8-0.1,1,0.2
				C817.5,43.3,817.4,43.7,817.1,44z"/>
			<path class="st1" d="M780.2,8.6c0.4,0.1,0.7,0.5,0.6,0.9c-0.1,0.4-0.5,0.7-0.9,0.6c-0.4-0.1-0.7-0.5-0.6-0.9
				C779.4,8.8,779.8,8.5,780.2,8.6z"/>
			<circle class="st1" cx="711.8" cy="70.2" r="0.7"/>
			<path class="st1" d="M872,112.2c0,0.7-0.6,1.3-1.3,1.3c-0.7,0-1.3-0.6-1.3-1.3c0-0.7,0.6-1.3,1.3-1.3
				C871.4,110.8,872,111.4,872,112.2z"/>
			<circle class="st1" cx="906.1" cy="22.2" r="1.3"/>
			<circle class="st1" cx="931.6" cy="62.9" r="0.7"/>
			<path class="st1" d="M947.2,46.2c0.4,0.1,0.7,0.5,0.6,0.9c-0.1,0.4-0.5,0.7-0.9,0.6c-0.4-0.1-0.7-0.5-0.6-0.9
				C946.4,46.4,946.8,46.1,947.2,46.2z"/>
			<circle class="st1" cx="940.9" cy="406.5" r="0.7"/>
			<circle class="st1" cx="988.1" cy="424" r="0.7"/>
			<circle class="st1" cx="1073.6" cy="313.7" r="0.7"/>
			<circle class="st1" cx="889.2" cy="420.2" r="0.7"/>
			<circle class="st1" cx="666.6" cy="414.1" r="0.7"/>
			<circle class="st1" cx="602.1" cy="500.5" r="0.7"/>
			<circle class="st1" cx="721.3" cy="409.5" r="0.7"/>
			<circle class="st1" cx="669.5" cy="509" r="0.7"/>
			<circle class="st1" cx="634.2" cy="385.6" r="1.3"/>
			<path class="st1" d="M622.9,327c0,0.7-0.6,1.3-1.3,1.3c-0.7,0-1.3-0.6-1.3-1.3c0-0.7,0.6-1.3,1.3-1.3
				C622.3,325.6,622.9,326.2,622.9,327z"/>
			<path class="st1" d="M183.3,380.1c0,1.5-1.2,2.7-2.7,2.7c-1.5,0-2.7-1.2-2.7-2.7c0-1.5,1.2-2.7,2.7-2.7
				C182.1,377.4,183.3,378.6,183.3,380.1z"/>
			<path class="st1" d="M69.4,360.6c0,0.7-0.6,1.3-1.3,1.3c-0.7,0-1.3-0.6-1.3-1.3c0-0.7,0.6-1.3,1.3-1.3
				C68.8,359.3,69.4,359.8,69.4,360.6z"/>
			<path class="st1" d="M242.1,399.5c0,0.7-0.6,1.3-1.3,1.3c-0.7,0-1.3-0.6-1.3-1.3c0-0.7,0.6-1.3,1.3-1.3
				C241.5,398.1,242.1,398.7,242.1,399.5z"/>
			<path class="st1" d="M62.6,468.3c0,0.7-0.6,1.3-1.3,1.3c-0.7,0-1.3-0.6-1.3-1.3c0-0.7,0.6-1.3,1.3-1.3
				C62.1,466.9,62.6,467.5,62.6,468.3z"/>
			<path class="st1" d="M28.8,533.1c0,0.7-0.6,1.3-1.3,1.3c-0.7,0-1.3-0.6-1.3-1.3c0-0.7,0.6-1.3,1.3-1.3
				C28.2,531.8,28.8,532.4,28.8,533.1z"/>
			<circle class="st1" cx="88.4" cy="483.9" r="0.7"/>
			<circle class="st1" cx="128.8" cy="459.4" r="0.7"/>
			<circle class="st1" cx="205.3" cy="402.4" r="0.7"/>
			<circle class="st1" cx="192" cy="359.1" r="0.7"/>
			<circle class="st1" cx="124.6" cy="507.1" r="0.7"/>
			<circle class="st1" cx="100.3" cy="579.9" r="0.7"/>
			<circle class="st1" cx="187.4" cy="539.8" r="0.7"/>
			<path class="st1" d="M104,467.2c0.4,0.1,0.7,0.5,0.6,0.9c-0.1,0.4-0.5,0.7-0.9,0.6c-0.4-0.1-0.7-0.5-0.6-0.9
				C103.2,467.4,103.6,467.1,104,467.2z"/>
			<circle class="st1" cx="84.5" cy="574.9" r="0.7"/>
			<circle class="st1" cx="58.9" cy="405.2" r="0.7"/>
			<circle class="st1" cx="106.1" cy="422.7" r="0.7"/>
			<circle class="st1" cx="214.4" cy="345.3" r="0.7"/>
			<path class="st1" d="M985.6,515.7c0,0.7-0.6,1.3-1.3,1.3c-0.7,0-1.3-0.6-1.3-1.3s0.6-1.3,1.3-1.3
				C985,514.3,985.6,514.9,985.6,515.7z"/>
			<path class="st1" d="M890.2,508.5c0,0.7-0.6,1.3-1.3,1.3c-0.7,0-1.3-0.6-1.3-1.3c0-0.7,0.6-1.3,1.3-1.3
				C889.6,507.2,890.2,507.8,890.2,508.5z"/>
			<path class="st1" d="M907.1,553.8c0,0.7-0.6,1.3-1.3,1.3s-1.3-0.6-1.3-1.3c0-0.7,0.6-1.3,1.3-1.3S907.1,553,907.1,553.8z"/>
			<circle class="st1" cx="916" cy="524.1" r="0.7"/>
			<circle class="st1" cx="123.8" cy="547.6" r="1.3"/>
			<circle class="st1" cx="167.9" cy="621.4" r="0.7"/>
			<path class="st1" d="M277.3,584.6c0,0.4-0.3,0.7-0.7,0.7s-0.7-0.3-0.7-0.7c0-0.4,0.3-0.7,0.7-0.7S277.3,584.2,277.3,584.6z"/>
			<path class="st1" d="M185.4,600.7c0.4,0.1,0.7,0.5,0.6,0.9c-0.1,0.4-0.5,0.7-0.9,0.6c-0.4-0.1-0.7-0.5-0.6-0.9
				C184.6,600.8,185,600.6,185.4,600.7z"/>
			<circle class="st1" cx="95.8" cy="622.9" r="0.7"/>
			<circle class="st1" cx="193.4" cy="570.6" r="0.7"/>
			<path class="st1" d="M312.8,621.3c0,0.7-0.6,1.3-1.3,1.3s-1.3-0.6-1.3-1.3c0-0.7,0.6-1.3,1.3-1.3S312.8,620.6,312.8,621.3z"/>
			<circle class="st1" cx="255.7" cy="590" r="0.7"/>
			<circle class="st1" cx="290.9" cy="595.4" r="1.3"/>
			<path class="st1" d="M408.7,601c0,0.7-0.6,1.3-1.3,1.3c-0.7,0-1.3-0.6-1.3-1.3s0.6-1.3,1.3-1.3
				C408.1,599.6,408.7,600.2,408.7,601z"/>
			<circle class="st1" cx="318" cy="611" r="0.7"/>
			<circle class="st1" cx="956.4" cy="499.7" r="0.7"/>
			<circle class="st1" cx="939.7" cy="516.1" r="0.7"/>
			<circle class="st1" cx="952.2" cy="547.4" r="0.7"/>
			<circle class="st1" cx="1063.8" cy="499.2" r="0.7"/>
			<circle class="st1" cx="1000.8" cy="547.2" r="0.7"/>
			<circle class="st1" cx="930.5" cy="528.7" r="0.7"/>
			<circle class="st1" cx="724.8" cy="475.7" r="0.7"/>
			<path class="st1" d="M931.5,507.4c0.4,0.1,0.7,0.5,0.6,0.9c-0.1,0.4-0.5,0.7-0.9,0.6c-0.4-0.1-0.7-0.5-0.6-0.9
				C930.8,507.6,931.1,507.4,931.5,507.4z"/>
			<circle class="st1" cx="733.5" cy="454.9" r="0.7"/>
			<path class="st1" d="M1082.2,421c0,1.5-1.2,2.7-2.7,2.7s-2.7-1.2-2.7-2.7s1.2-2.7,2.7-2.7S1082.2,419.5,1082.2,421z"/>
			<circle class="st1" cx="1060.8" cy="581.2" r="1.3"/>
			<path class="st1" d="M755.7,461.7c0,1.5-1.2,2.7-2.7,2.7c-1.5,0-2.7-1.2-2.7-2.7c0-1.5,1.2-2.7,2.7-2.7
				C754.5,459,755.7,460.2,755.7,461.7z"/>
			<circle class="st1" cx="1030.4" cy="555.9" r="1.3"/>
			<circle class="st1" cx="777.7" cy="483.9" r="0.7"/>
			<circle class="st1" cx="764.4" cy="440.6" r="0.7"/>
			<circle class="st1" cx="965.4" cy="587.1" r="0.7"/>
			<path class="st1" d="M233.2,525.5c0,1.5-1.2,2.7-2.7,2.7c-1.5,0-2.7-1.2-2.7-2.7c0-1.5,1.2-2.7,2.7-2.7
				C232,522.8,233.2,524,233.2,525.5z"/>
			<path class="st1" d="M260.9,478.1c0,0.7-0.6,1.3-1.3,1.3c-0.7,0-1.3-0.6-1.3-1.3c0-0.7,0.6-1.3,1.3-1.3
				C260.3,476.8,260.9,477.4,260.9,478.1z"/>
			<path class="st1" d="M230.1,587.2c0,0.7-0.6,1.3-1.3,1.3s-1.3-0.6-1.3-1.3s0.6-1.3,1.3-1.3S230.1,586.5,230.1,587.2z"/>
			<path class="st1" d="M578.5,516.7c0,0.7-0.6,1.3-1.3,1.3c-0.7,0-1.3-0.6-1.3-1.3c0-0.7,0.6-1.3,1.3-1.3
				C577.9,515.4,578.5,516,578.5,516.7z"/>
			<circle class="st1" cx="285.8" cy="531.7" r="1.3"/>
			<circle class="st1" cx="346.7" cy="482.4" r="0.7"/>
			<circle class="st1" cx="382.8" cy="505.7" r="0.7"/>
			<circle class="st1" cx="358.6" cy="578.4" r="0.7"/>
			<circle class="st1" cx="434.2" cy="544.9" r="0.7"/>
			<circle class="st1" cx="342.7" cy="573.5" r="0.7"/>
			<path class="st1" d="M544.9,566.1c0,1.5-1.2,2.7-2.7,2.7c-1.5,0-2.7-1.2-2.7-2.7c0-1.5,1.2-2.7,2.7-2.7
				C543.7,563.4,544.9,564.6,544.9,566.1z"/>
			<path class="st1" d="M459.3,540.9c0,1.5-1.2,2.7-2.7,2.7c-1.5,0-2.7-1.2-2.7-2.7c0-1.5,1.2-2.7,2.7-2.7
				C458.1,538.2,459.3,539.4,459.3,540.9z"/>
			<path class="st1" d="M519.2,476.7c0,0.7-0.6,1.3-1.3,1.3c-0.7,0-1.3-0.6-1.3-1.3c0-0.7,0.6-1.3,1.3-1.3
				C518.6,475.3,519.2,475.9,519.2,476.7z"/>
			<path class="st1" d="M652.9,545.1c0,0.7-0.6,1.3-1.3,1.3c-0.7,0-1.3-0.6-1.3-1.3c0-0.7,0.6-1.3,1.3-1.3
				C652.3,543.7,652.9,544.3,652.9,545.1z"/>
			<circle class="st1" cx="529" cy="538.5" r="0.7"/>
			<circle class="st1" cx="578.7" cy="508.1" r="0.7"/>
			<circle class="st1" cx="487" cy="585.8" r="1.3"/>
			<path class="st1" d="M469.1,609.1c0,0.7-0.6,1.3-1.3,1.3c-0.7,0-1.3-0.6-1.3-1.3c0-0.7,0.6-1.3,1.3-1.3
				C468.5,607.8,469.1,608.3,469.1,609.1z"/>
			<circle class="st1" cx="403" cy="542.9" r="1.3"/>
		</g>
		
			<linearGradient id="SVGID_2_" gradientUnits="userSpaceOnUse" x1="327.4402" y1="1076.1447" x2="377.1362" y2="1076.1447" gradientTransform="matrix(0.9013 -0.4336 0.4335 0.9011 -149.7262 -573.2316)">
			<stop  offset="0" style="stop-color:#FFFFFF"/>
			<stop  offset="1" style="stop-color:#FFFFFF;stop-opacity:0"/>
		</linearGradient>
		<path class="st5" d="M656.7,233c0.4,0.8-41.7,21.9-42.6,22.3c-0.8,0.4-1.8,0.1-2.2-0.8c-0.4-0.8-0.1-1.8,0.8-2.2
			C613.5,251.9,656.3,232.1,656.7,233z"/>
		
			<linearGradient id="SVGID_3_" gradientUnits="userSpaceOnUse" x1="467.1605" y1="1252.7344" x2="501.5619" y2="1252.7344" gradientTransform="matrix(0.9013 -0.4336 0.4335 0.9011 -149.7262 -573.2316)">
			<stop  offset="0" style="stop-color:#FFFFFF"/>
			<stop  offset="1" style="stop-color:#FFFFFF;stop-opacity:0"/>
		</linearGradient>
		<path class="st6" d="M844.5,336.3c0.4,0.8-26.8,17.8-27.6,18.2c-0.8,0.4-1.8,0.1-2.2-0.8c-0.4-0.8-0.1-1.8,0.8-2.2
			C816.3,351,844.1,335.4,844.5,336.3z"/>
		
			<linearGradient id="SVGID_4_" gradientUnits="userSpaceOnUse" x1="578.7656" y1="1040.4006" x2="677.3617" y2="1040.4006" gradientTransform="matrix(0.9013 -0.4336 0.4335 0.9011 -149.7262 -573.2316)">
			<stop  offset="0" style="stop-color:#FFFFFF"/>
			<stop  offset="1" style="stop-color:#FFFFFF;stop-opacity:0"/>
		</linearGradient>
		<path class="st7" d="M912.1,71.2c0.4,0.8-86.1,42.5-86.9,42.9c-0.8,0.4-1.8,0.1-2.2-0.8c-0.4-0.8-0.1-1.8,0.8-2.2
			C824.5,110.7,911.7,70.3,912.1,71.2z"/>
	</g>
	<g>
		
			<image style="overflow:visible;opacity:0.75;" width="1070" height="805" xlink:href="C0248FEB.png"  transform="matrix(0.24 0 0 0.24 0 0)">
		</image>
		<g>
			<path class="st8" d="M234.6,29.7v0.8c0,23.5-19.2,42.6-42.7,42.6h-1c0.5,3,0.8,6.1,0.8,9.2c0,3.8-0.4,7.5-1.2,11.1
				c-5.1,23.9-26.3,41.8-51.7,41.8c-15.8,0-30-6.9-39.6-17.9C89.2,148.5,60,171,25.5,171c-5.9,0-11.7-0.7-17.2-1.9V68.9
				c5.4,6.9,13.8,11.4,23.3,11.4c8.8,0,16.8-3.9,22.2-10c5.6,17.5,22,30.1,41.4,30.1c24,0,43.5-19.5,43.5-43.5h10
				c14.1,0,25.6-11.5,25.6-25.6V21.2c0-4.8-1.3-9.3-3.6-13.1h58.5C232.6,14.5,234.6,21.9,234.6,29.7z"/>
		</g>
	</g>
	<g>
		<g>
			<g>
				
					<image style="overflow:visible;opacity:0.75;" width="1501" height="620" xlink:href="C0248FE9.png"  transform="matrix(0.24 0 0 0.24 750 0)">
				</image>
				<g>
					<path class="st9" d="M1088.2,57.4v8.5h-7.3c0,33.7-39.1,60.9-87.4,60.9c-38.9,0-71.8-17.7-83.1-42.2
						c-10.8,8.6-26.8,14.1-44.6,14.1c-28.6,0-52.5-14.1-58.2-32.8c-0.9-2.8-1.3-5.7-1.3-8.7c0-2.5,0.3-4.9,0.9-7.2H806
						c-26.4,0-48-15.1-48-33.5v-0.6c0-2.7,0.4-5.2,1.2-7.7h75.2c7.4,13.5,26.4,23.2,48.6,23.2h20.4c0,33.6,39.5,60.9,88.4,60.9
						c39.3,0,72.7-17.7,84.1-42.2C1079.5,52.8,1083.6,55.3,1088.2,57.4z"/>
				</g>
			</g>
			<g>
				
					<image style="overflow:visible;opacity:0.75;" width="1183" height="476" xlink:href="C0248FEF.png"  transform="matrix(0.24 0 0 0.24 826.32 0)">
				</image>
				<g>
					<path class="st8" d="M1088.2,8.1v49.3c-4.6-2.1-8.8-4.6-12.4-7.4c-11.4,24.5-44.8,42.2-84.1,42.2c-48.8,0-88.4-27.3-88.4-60.9
						H883c-22.1,0-41.1-9.7-48.6-23.2H1088.2z"/>
				</g>
			</g>
		</g>
		<g>
			<g>
				
					<image style="overflow:visible;opacity:0.75;" width="1559" height="1197" xlink:href="C0248FE8.png"  transform="matrix(0.24 0 0 0.24 736.08 343.44)">
				</image>
				<g>
					<path class="st9" d="M1088.2,425.7v182.9H754.3c-6.4-10.5-10-22.8-10-35.8v-28.4c0-39.3,33.2-71.4,73.8-71.4h29
						c0-67.1,56.2-121.4,125.5-121.4C1024.6,351.6,1069.2,382.1,1088.2,425.7z"/>
				</g>
			</g>
			<g>
				
					<image style="overflow:visible;opacity:0.75;" width="1248" height="869" xlink:href="C0248FE6.png"  transform="matrix(0.24 0 0 0.24 810.72 422.16)">
				</image>
				<g>
					<path class="st8" d="M1088.2,436.6v172H822.4c-2.3-5.8-3.6-12.1-3.6-18.8V589c0-26.5,21.7-48.2,48.2-48.2h1.2
						c-0.6-3.4-0.9-6.9-0.9-10.4c0-4.3,0.5-8.5,1.3-12.5c5.7-27,29.7-47.2,58.4-47.2c17.8,0,33.9,7.8,44.7,20.2
						c11.3-35.2,44.4-60.7,83.4-60.7C1066.9,430.2,1078,432.5,1088.2,436.6z"/>
				</g>
			</g>
			<g>
				
					<image style="overflow:visible;opacity:0.75;" width="720" height="504" xlink:href="C0248FE7.png"  transform="matrix(0.24 0 0 0.24 937.44 509.76)">
				</image>
				<g>
					<path class="st10" d="M1088.2,525.3v83.3H948c-1.6-3.3-2.5-7.1-2.5-11v-0.4c0-13.2,10.8-24.1,24.1-24.1h0.6
						c-0.3-1.7-0.5-3.4-0.5-5.2c0-2.2,0.2-4.2,0.7-6.2c2.9-13.5,14.9-23.6,29.2-23.6c8.9,0,16.9,3.9,22.4,10.1
						c5.7-17.6,22.2-30.4,41.7-30.4C1072.8,517.8,1081.2,520.6,1088.2,525.3z"/>
				</g>
			</g>
		</g>
		<g>
			<g>
				
					<image style="overflow:visible;opacity:0.75;" width="1957" height="1216" xlink:href="C0248FF7.png"  transform="matrix(0.24 0 0 0.24 0 338.88)">
				</image>
				<g>
					<path class="st9" d="M445.4,608.6h-33.5c1.9-5.6,3-11.5,3-17.5V590c0-33.8-34.5-61.5-76.5-61.5h-1.8c0.9-4.3,1.5-8.8,1.5-13.3
						c0-5.5-0.7-10.8-2.1-15.9c-9.1-34.4-47.2-60.2-92.8-60.2c-28.3,0-53.8,10-71.1,25.8c-18-45-70.6-77.4-132.5-77.4
						c-10.7,0-21.2,1-31.2,2.8v-31.2c43.6-34.6,152.4,11.6,161.9,58.7c43.9-11.2,158-48.2,180.3,88.3c0,0,50-19.4,78.1,16.9
						C456.6,559.3,445.4,608.6,445.4,608.6z"/>
				</g>
			</g>
			<g>
				
					<image style="overflow:visible;opacity:0.75;" width="1821" height="1047" xlink:href="C0248FF9.png"  transform="matrix(0.24 0 0 0.24 0 379.44)">
				</image>
				<g>
					<path class="st8" d="M414.9,590v1.1c0,6.1-1,11.9-3,17.5H279.1c0-0.6,0-1.2,0-1.8V606c0-23.5-19.2-42.7-42.6-42.7h-1
						c0.5-3,0.8-6.1,0.8-9.2c0-3.8-0.4-7.5-1.2-11.1c-5.1-23.9-26.3-41.8-51.7-41.8c-15.8,0-30,6.9-39.6,17.9
						c-10-31.2-39.3-53.7-73.8-53.7c-25.2,0-47.6,12-61.8,30.7V390.3c10-1.8,20.5-2.8,31.2-2.8c61.9,0,114.5,32.5,132.5,77.4
						c17.3-15.8,42.7-25.8,71.1-25.8c45.6,0,83.7,25.8,92.8,60.2c1.4,5.1,2.1,10.4,2.1,15.9c0,4.5-0.5,9-1.5,13.3h1.8
						C380.4,528.5,414.9,556.2,414.9,590z"/>
				</g>
			</g>
			<g>
				
					<image style="overflow:visible;opacity:0.75;" width="1255" height="722" xlink:href="C0248FFB.png"  transform="matrix(0.24 0 0 0.24 0 457.44)">
				</image>
				<g>
					<path class="st10" d="M279.2,606v0.8c0,0.6,0,1.2,0,1.8H8.2V496.2c14.2-18.6,36.6-30.7,61.8-30.7c34.5,0,63.8,22.5,73.8,53.7
						c9.6-11,23.8-17.9,39.6-17.9c25.4,0,46.6,17.9,51.7,41.8c0.8,3.6,1.2,7.2,1.2,11.1c0,3.1-0.3,6.2-0.8,9.2h1
						C260,563.4,279.2,582.6,279.2,606z"/>
				</g>
			</g>
		</g>
	</g>
	<g>
		
			<image style="overflow:visible;opacity:0.75;" width="818" height="510" xlink:href="C548CD08.png"  transform="matrix(0.24 0 0 0.24 0 0)">
		</image>
		<g>
			<path class="st10" d="M174.2,21.2v10.1c0,14.1-11.5,25.6-25.6,25.6h-10c0,24-19.5,43.5-43.5,43.5c-19.3,0-35.8-12.6-41.4-30.1
				c-5.4,6.2-13.3,10-22.2,10c-9.5,0-17.9-4.5-23.3-11.4V8.1h162.4C172.9,11.9,174.2,16.4,174.2,21.2z"/>
		</g>
	</g>
</g>
</svg>
